<?xml version="1.0" encoding="UTF-8" standalone="no"?>
<!-- Created with Inkscape (http://www.inkscape.org/) -->

<svg
   version="1.1"
   id="svg216"
   width="665.63269"
   height="617.7157"
   viewBox="0 0 665.63269 617.71569"
   sodipodi:docname="nest-desktop-logo.svg"
   inkscape:version="1.1.1 (eb90963e84, 2021-10-02)"
   xmlns:inkscape="http://www.inkscape.org/namespaces/inkscape"
   xmlns:sodipodi="http://sodipodi.sourceforge.net/DTD/sodipodi-0.dtd"
   xmlns="http://www.w3.org/2000/svg"
   xmlns:svg="http://www.w3.org/2000/svg">
  <defs
     id="defs220" />
  <sodipodi:namedview
     id="namedview218"
     pagecolor="#ffffff"
     bordercolor="#666666"
     borderopacity="1.0"
     inkscape:pageshadow="2"
     inkscape:pageopacity="0.0"
     inkscape:pagecheckerboard="0"
     showgrid="false"
     fit-margin-top="0"
     fit-margin-left="0"
     fit-margin-right="0"
     fit-margin-bottom="0"
     inkscape:zoom="1.0857547"
     inkscape:cx="246.83292"
     inkscape:cy="241.30681"
     inkscape:window-width="1920"
     inkscape:window-height="1163"
     inkscape:window-x="1920"
     inkscape:window-y="0"
     inkscape:window-maximized="1"
     inkscape:current-layer="g222" />
  <g
     inkscape:groupmode="layer"
     inkscape:label="Image"
     id="g222"
     transform="translate(-682.05594,595.98369)">
    <path
       style="fill:#ffffff;fill-opacity:1;stroke:#000000;stroke-width:2;stroke-miterlimit:4;stroke-dasharray:none;stroke-opacity:1"
       d="m 929.34104,17.731626 c -6.85952,-3.61968 -21.804,-15.1459998 -64.38597,-49.65939 -52.68519,-42.70222 -101.48875,-83.623636 -113.95194,-95.547816 l -11.58977,-11.08856 -1.30401,-10.66667 c -0.71721,-5.86667 -1.59639,-13.14537 -1.95375,-16.17489 -0.44934,-3.80932 -2.40034,-7.76266 -6.32562,-12.81764 l -5.67588,-7.30942 -6.91271,-52.51569 c -3.80199,-28.88363 -9.32343,-73.21569 -12.26986,-98.51569 -9.43295,-80.99747 -12.03464,-101.3557 -16.95426,-132.66667 -3.96245,-25.21909 -4.84004,-34.45629 -4.94029,-52 -0.1099,-19.23198 0.1474,-21.79301 2.61215,-26 2.51231,-4.28819 3.48555,-4.79125 12,-6.20274 12.79034,-2.12032 91.77704,-10.80045 192.59927,-21.16541 46.56667,-4.78725 105.92239,-11.08317 131.9016,-13.99091 62.7802,-7.02674 70.9934,-7.57896 73.1988,-4.92166 0.9637,1.16121 2.8557,11.9179 4.3108,24.50845 3.2648,28.24984 7.2218,51.97632 17.9911,107.87567 17.5864,91.28455 20.4994,112.48897 21.5276,156.7052 l 0.7629,32.8086 60.1536,35.14351 c 131.0256,76.54905 145.4772,85.26433 146.3989,88.28821 0.2712,0.88976 0.177,9.82064 -0.2094,19.84641 -0.6505,16.87682 -0.9385,18.4796 -3.8841,21.61246 -3.3024,3.51241 -8.9999,5.4876 -75.4851,26.169096 -78.8928,24.54108 -210.7332,66.94694 -256.6667,82.5556302 -33.40552,11.3515498 -61.19707,18.7912898 -69.96655,18.7299198 -2.95173,-0.0207 -7.89309,-1.37065 -10.98081,-3 z"
       id="path5611"
       sodipodi:nodetypes="ssscssscssssccsssssscssssssss" />
    <path
       style="fill:#000000;fill-opacity:1;stroke:none;stroke-width:2;stroke-miterlimit:4;stroke-dasharray:none;stroke-opacity:1"
       d="m 929.34104,17.731626 c -6.85952,-3.61968 -21.804,-15.1459998 -64.38597,-49.65939 -52.68519,-42.70222 -101.48875,-83.623636 -113.95194,-95.547816 l -11.58977,-11.08856 -1.30401,-10.66667 c -0.71721,-5.86667 -1.59639,-13.14537 -1.95375,-16.17489 -0.44934,-3.80932 -2.40034,-7.76266 -6.32562,-12.81764 l -5.67588,-7.30942 -6.91271,-52.51569 c -3.80199,-28.88363 -9.32343,-73.21569 -12.26986,-98.51569 -9.43295,-80.99747 -12.03464,-101.3557 -16.95426,-132.66667 -3.96245,-25.21909 -4.84004,-34.45629 -4.94029,-52 -0.1099,-19.23198 0.1474,-21.79301 2.61215,-26 2.51231,-4.28819 3.48555,-4.79125 12,-6.20274 12.79034,-2.12032 91.77704,-10.80045 192.59927,-21.16541 46.56667,-4.78725 105.92239,-11.08317 131.9016,-13.99091 62.7802,-7.02674 70.9934,-7.57896 73.1988,-4.92166 0.9637,1.16121 2.8557,11.9179 4.3108,24.50845 3.2648,28.24984 7.2218,51.97632 17.9911,107.87567 17.5864,91.28455 20.4994,112.48897 21.5276,156.7052 l 0.7629,32.8086 60.1536,35.14351 c 131.0256,76.54905 145.4772,85.26433 146.3989,88.28821 0.2712,0.88976 0.177,9.82064 -0.2094,19.84641 -0.6505,16.87682 -0.9385,18.4796 -3.8841,21.61246 -3.3024,3.51241 -8.9999,5.4876 -75.4851,26.169096 -78.8928,24.54108 -210.7332,66.94694 -256.6667,82.5556302 -33.40552,11.3515498 -61.19707,18.7912898 -69.96655,18.7299198 -2.95173,-0.0207 -7.89309,-1.37065 -10.98081,-3 z m 26.72521,-33.03655 c 5.98884,-1.50741 24.38882,-6.86493 40.88882,-11.90557 39.49073,-12.06416 56.54393,-16.93115 123.33333,-35.1994 101.4944,-27.76077 194.6669,-54.323526 199.3632,-56.836906 2.2559,-1.20732 3.9701,-9.02149 3.9701,-18.09758 0,-4.37918 -0.3342,-4.60826 -51,-34.96116 -28.05,-16.80422 -69.6,-41.53936 -92.3333,-54.96699 -54.1181,-31.96525 -53.7974,-31.75044 -54.6705,-36.62495 -0.394,-2.2 -1.2955,-21.7 -2.0033,-43.33333 -1.5082,-46.093 -2.2433,-51.73952 -17.9272,-137.70385 -12.735,-69.80131 -17.5498,-101.05113 -19.0481,-123.62949 -1.0092,-15.20662 -1.0461,-15.33665 -4.4737,-15.73491 -4.6433,-0.53952 -87.00497,10.03313 -216.51904,27.79421 -149.22752,20.46451 -163.86202,22.62612 -165.0958,24.38568 -2.19936,3.13665 0.31351,28.53138 5.03553,50.88836 7.74379,36.66391 17.11618,97.37963 42.84323,277.54473 0.53576,3.75194 2.08055,6.76972 4.7777,9.33334 6.33196,6.01849 8.08036,10.8117 9.62931,26.39862 l 1.45188,14.61003 12.66666,10.90527 c 31.58336,27.19144 150.48109,125.020796 154.66666,127.260116 6.06519,3.24492 11.15574,3.21864 24.44452,-0.12627 z m -93.59057,-64.0001 c -9.97473,-6.0812 -69.58861,-52.546476 -79.87526,-62.257756 -8.41927,-7.94835 -10.92539,-20.5092 -5.22859,-26.206 5.64232,-5.64232 20.87431,-10.09024 116.91657,-34.14104 51.28227,-12.84206 65.97621,-16.12887 128,-28.63164 26.7667,-5.39564 59.591,-12.28144 72.9429,-15.30178 l 24.2763,-5.49153 41.0571,20.61519 c 43.0598,21.62076 56.5163,29.40805 59.0732,34.1856 2.1466,4.01101 -0.5852,10.1728 -5.6777,12.8062 -4.2645,2.20525 -30.2695,10.38092 -71.6718,22.53276 -23.5751,6.91942 -35.8522,11.28274 -26.6667,9.47738 13.9851,-2.74865 15.2049,-2.61521 30.0138,3.28326 24.36,9.70278 36.6529,18.82329 36.6529,27.1941 0,4.55539 -3.5304,6.80583 -22.7741,14.5173 -9.8409,3.94349 -25.3861,11.442476 -34.5448,16.664406 -19.6159,11.18417 -24.3861,11.96055 -35.8073,5.82776 -16.1829,-8.68965 -41.5776,-31.285306 -46.9117,-41.740926 -1.4511,-2.84443 -3.3862,-4.9385 -4.3003,-4.65348 -14.5349,4.53226 -33.2962,10.83886 -78.08763,26.24913 -56.39042,19.400836 -83.43177,27.815306 -89.36255,27.806956 -1.94972,-0.003 -5.56067,-1.23389 -8.02434,-2.73589 z m 51.14606,-40.538856 c 49.86315,-12.39669 97.48486,-25.13929 155.18926,-41.5255 24.5868,-6.98184 60.3274,-16.8328 79.4236,-21.89102 40.6791,-10.77508 44.7205,-11.91694 44.7205,-12.63569 0,-1.64352 -40.4492,-25.71241 -65.6487,-39.06359 l -10.2358,-5.42313 -30.7491,7.89537 c -16.912,4.34246 -49.188,12.95854 -71.7244,19.14684 -22.53646,6.18831 -69.17537,18.77146 -103.64203,27.96254 -62.89884,16.77298 -99.32648,27.02929 -100.62977,28.33258 -0.38465,0.38466 0.20824,1.40031 1.31753,2.25702 1.1093,0.8567 12.20835,9.68486 24.66457,19.61813 31.51408,25.13103 31.66583,25.24164 34.64767,25.25715 1.46667,0.008 20.66667,-4.46119 42.66667,-9.9307 z m 211.33336,1.80459 c 8.4333,-2.11375 18.2623,-4.95943 21.8422,-6.32375 l 6.509,-2.48058 -10.509,-7.95131 c -5.7799,-4.37321 -11.1741,-8.34329 -11.987,-8.8224 -1.5237,-0.89797 -47.7779,15.10913 -49.9574,17.28865 -0.739,0.73902 2.5614,3.72578 8.3616,7.56696 11.0028,7.28663 9.6592,7.25947 35.7406,0.72243 z m -347.33336,-79.78533 c -7.45921,-3.05299 -10.20966,-10.00474 -14.536,-36.73952 -28.43609,-175.72204 -41.85927,-271.70587 -40.55635,-290.00238 0.35786,-5.02529 1.01768,-6.26017 4.14122,-7.75051 7.95822,-3.79713 101.7907,-15.58477 214.14918,-26.90236 36.95893,-3.72278 77.75891,-7.94305 90.66661,-9.37838 12.9078,-1.43533 28.4315,-2.61494 34.4972,-2.62137 10.1718,-0.0108 11.1288,0.2214 12.3176,2.98833 2.3027,5.35928 10.8372,59.66607 26.7684,170.33333 5.859,40.7 11.5277,79.4 12.5971,86 2.8808,17.78011 2.6295,24.16651 -1.045,26.55634 -1.65,1.07313 -24.8046,7.40377 -51.4547,14.06808 -60.7323,15.18716 -82.2198,21.00337 -163.54526,44.26825 -98.0554,28.05084 -116.28061,32.33968 -124,29.18019 z m 56.92925,-41.9982 c 60.19853,-12.7268 118.21097,-25.47308 149.07074,-32.75327 41.98407,-9.90455 116.60517,-28.2146 117.17767,-28.75232 1.4992,-1.40813 -27.8491,-229.65008 -32.905,-255.9024 -0.986,-5.11956 -1.2124,-5.31581 -5.6499,-4.89605 -8.8822,0.8402 -61.1695,8.39917 -130.62277,18.88366 -38.49999,5.81186 -90.99999,13.59273 -116.66666,17.29082 -76.45387,11.01559 -70.50641,9.83095 -69.5202,13.84728 0.38817,1.58086 6.76028,41.87429 14.16023,89.54096 16.64367,107.20989 29.22218,184.13064 30.78017,188.22845 0.64925,1.70768 1.71025,3.10488 2.35775,3.10488 0.64751,0 19.46559,-3.8664 41.81797,-8.59201 z"
       id="path354" />
    <g
       id="g3339"
       transform="matrix(0.95486209,-0.14682421,0.14603585,0.95973736,1359.0689,-1143.3574)"
       inkscape:transform-center-x="-105.36994"
       inkscape:transform-center-y="-63.824248">
      <path
         id="path3341"
         style="fill:#ff6633;fill-opacity:1;fill-rule:nonzero;stroke:none"
         d="m -437.63364,674.86299 c 0,8.09375 -6.4625,15.69375 -14.43875,15.69375 h -221.89375 l -10e-4,-84.5925 c 0,-8.0925 6.46375,-14.65375 14.44,-14.65375 h 207.455 c 7.97625,0 14.43875,6.56125 14.43875,14.65375 v 68.89875 z"
         inkscape:connector-curvature="0" />
      <path
         inkscape:connector-curvature="0"
         id="path3356"
         style="font-style:normal;font-variant:normal;font-weight:bold;font-stretch:normal;font-size:74px;line-height:0%;font-family:'Courier 10 Pitch';-inkscape-font-specification:'Courier 10 Pitch Bold';text-align:start;letter-spacing:-2.5px;word-spacing:0px;writing-mode:lr-tb;text-anchor:start;fill:#ffffff;fill-opacity:1;stroke:none"
         d="m -628.49863,649.8526 v -12.062 c 0,-9.47199 -3.626,-14.208 -11.47,-14.208 -4.58799,0 -7.918,1.77601 -10.212,5.254 v -2.812 c 0,-0.96199 -0.666,-1.554 -2.072,-1.554 h -6.142 c -3.03399,0 -4.514,0.96201 -4.514,3.996 0,2.59 1.33201,3.922 3.922,3.922 0.148,0 0.37,0 0.592,0 v 17.464 c -0.148,0 -0.296,0 -0.444,0 -2.73799,0 -4.07,1.33201 -4.07,3.996 0,2.96 1.40601,3.996 4.514,3.996 h 8.954 c 3.108,0 4.514,-1.036 4.514,-3.996 0,-2.66399 -1.332,-3.996 -4.07,-3.996 -0.148,0 -0.296,0 -0.444,0 v -10.434 c 0,-5.10599 3.03401,-7.992 6.808,-7.992 4.144,0 5.254,2.73801 5.254,7.992 v 10.434 c -0.148,0 -0.296,0 -0.444,0 -2.73799,0 -4.144,1.33201 -4.144,3.996 0,2.96 1.48001,3.996 4.588,3.996 h 8.88 c 3.108,0 4.514,-1.036 4.514,-3.996 0,-2.66399 -1.332,-3.996 -4.07,-3.996 -0.148,0 -0.296,0 -0.444,0" />
      <path
         inkscape:connector-curvature="0"
         id="path3358"
         style="font-style:normal;font-variant:normal;font-weight:bold;font-stretch:normal;font-size:74px;line-height:0%;font-family:'Courier 10 Pitch';-inkscape-font-specification:'Courier 10 Pitch Bold';text-align:start;letter-spacing:-2.5px;word-spacing:0px;writing-mode:lr-tb;text-anchor:start;fill:#ffffff;fill-opacity:1;stroke:none"
         d="m -611.495,643.2666 h 23.31 c 3.77399,0 5.254,-0.518 5.254,-3.7 0,-8.43599 -7.10401,-15.91 -18.056,-15.91 -11.98799,0 -19.684,7.54801 -19.684,17.538 0,9.98999 7.77001,17.538 19.684,17.538 10.58199,0 17.464,-4.144 17.464,-8.288 0,-2.14599 -1.332,-3.552 -3.256,-3.552 -2.664,0 -6.14201,4.366 -13.912,4.366 -5.994,0 -9.546,-2.59 -10.804,-7.992 m 0,-5.624 c 1.258,-4.73599 4.44,-7.03 9.694,-7.03 5.40199,0 8.954,2.51601 9.768,7.03 h -19.462" />
      <path
         inkscape:connector-curvature="0"
         id="path3360"
         style="font-style:normal;font-variant:normal;font-weight:bold;font-stretch:normal;font-size:74px;line-height:0%;font-family:'Courier 10 Pitch';-inkscape-font-specification:'Courier 10 Pitch Bold';text-align:start;letter-spacing:-2.5px;word-spacing:0px;writing-mode:lr-tb;text-anchor:start;fill:#ffffff;fill-opacity:1;stroke:none"
         d="m -569.18338,657.4006 c 3.478,0.962 6.95601,1.332 10.73,1.332 10.13799,0 15.54,-4.292 15.54,-11.322 0,-7.10399 -5.10601,-9.25 -14.356,-10.582 -6.51199,-0.96199 -9.472,-0.666 -9.472,-3.774 0,-2.07199 1.99801,-3.478 5.92,-3.478 6.512,0 8.58401,5.18 12.21,5.18 1.924,0 3.108,-1.184 3.108,-3.256 v -4.44 c 0,-2.44199 -0.962,-3.7 -2.96,-3.7 -1.406,0 -2.59,0.59201 -3.552,1.776 -3.40399,-1.03599 -6.66,-1.554 -9.916,-1.554 -9.17599,0 -14.208,3.92201 -14.208,10.656 0,5.772 4.07001,9.02801 12.432,10.212 7.844,1.11 11.248,1.11001 11.248,4.514 0,1.924 -1.924,3.626 -5.698,3.626 -3.99599,0 -7.03,-1.036 -9.472,-3.182 -1.776,-1.62799 -1.702,-3.7 -4.81,-3.7 -2.58999,0 -3.552,1.18401 -3.552,4.366 v 4.884 c 0,2.516 0.51801,3.922 2.886,3.922 1.332,0 2.59,-0.518 3.922,-1.48" />
      <path
         inkscape:connector-curvature="0"
         id="path3362"
         style="font-style:normal;font-variant:normal;font-weight:bold;font-stretch:normal;font-size:74px;line-height:0%;font-family:'Courier 10 Pitch';-inkscape-font-specification:'Courier 10 Pitch Bold';text-align:start;letter-spacing:-2.5px;word-spacing:0px;writing-mode:lr-tb;text-anchor:start;fill:#ffffff;fill-opacity:1;stroke:none"
         d="m -532.42175,634.3866 h 3.404 v 9.25 c 0,0.296 0,0.592 0,0.814 0,4.366 0.074,7.69601 2.22,10.212 2.072,2.442 5.846,3.922 10.952,3.922 8.95399,0 16.502,-3.996 16.502,-7.252 0,-2.51599 -1.702,-4.144 -3.626,-4.144 -3.108,0 -6.66001,3.256 -11.766,3.256 -4.292,0 -5.402,-2.072 -5.402,-6.808 v -9.25 h 11.026 c 3.034,0 4.588,-0.962 4.588,-3.996 0,-3.03399 -1.554,-3.922 -4.588,-3.922 h -11.026 v -8.436 c 0,-3.10799 -1.11001,-4.514 -4.514,-4.514 -2.812,0 -4.366,1.55401 -4.366,3.034 0,0.148 0,0.59201 0,1.48 v 8.436 h -3.404 c -3.034,0 -4.514,0.88801 -4.514,3.922 0,3.034 1.48,3.996 4.514,3.996" />
      <ellipse
         transform="matrix(0.6746707,0,0,0.77409589,-387.34411,272.29267)"
         id="path3347"
         style="fill:#ffffff;fill-opacity:1;stroke:none"
         cx="-133.20123"
         cy="461.3093"
         rx="9.6343298"
         ry="8.3968925" />
      <ellipse
         style="fill:#ffffff;fill-opacity:1;stroke:none"
         id="path3349"
         transform="matrix(0.6746707,0,0,0.77409589,-365.34411,272.29267)"
         cx="-133.20123"
         cy="461.3093"
         rx="9.6343298"
         ry="8.3968925" />
      <ellipse
         transform="matrix(0.6746707,0,0,0.77409589,-365.34411,294.29267)"
         id="path3351"
         style="fill:#ffffff;fill-opacity:1;stroke:none"
         cx="-133.20123"
         cy="461.3093"
         rx="9.6343298"
         ry="8.3968925" />
      <ellipse
         style="fill:#ffffff;fill-opacity:1;stroke:none"
         id="path3353"
         transform="matrix(0.6746707,0,0,0.77409589,-387.34411,294.29267)"
         cx="-133.20123"
         cy="461.3093"
         rx="9.6343298"
         ry="8.3968925" />
    </g>
  </g>
</svg>
